<svg xmlns="http://www.w3.org/2000/svg" width="1920" height="1080"><path d="M768,1207L620,1215L992,1215Z" fill="#456e92" stroke="#456e92" stroke-width="1.51"/><path d="M599,-132L1040,-124L1292,-145Z" fill="#abd8cb" stroke="#abd8cb" stroke-width="1.51"/><path d="M338,-154L599,-132L1292,-145Z" fill="#bbe2c8" stroke="#bbe2c8" stroke-width="1.51"/><path d="M992,1215L620,1215L1292,1230Z" fill="#306793" stroke="#306793" stroke-width="1.51"/><path d="M620,1215L159,1239L1292,1230Z" fill="#4d708e" stroke="#4d708e" stroke-width="1.51"/><path d="M1167,1218L992,1215L1292,1230Z" fill="#265c91" stroke="#265c91" stroke-width="1.51"/><path d="M338,-154L1292,-145L1526,-154Z" fill="#a9d3cc" stroke="#a9d3cc" stroke-width="1.51"/><path d="M1727,1187L1637,1195L1853,1187Z" fill="#1d3383" stroke="#1d3383" stroke-width="1.51"/><path d="M1637,1195L1510,1213L1853,1187Z" fill="#1c3784" stroke="#1c3784" stroke-width="1.51"/><path d="M1639,-136L1804,-116L1935,-116Z" fill="#9c95b4" stroke="#9c95b4" stroke-width="1.51"/><path d="M1526,-154L1639,-136L1935,-116Z" fill="#9d9cb9" stroke="#9d9cb9" stroke-width="1.51"/><path d="M2067,860L1987,994L2067,1002Z" fill="#1b3984" stroke="#1b3984" stroke-width="1.51"/><path d="M1526,-154L1935,-116L2076,-108Z" fill="#9a91b1" stroke="#9a91b1" stroke-width="1.51"/><path d="M2076,-108L1958,-46L2089,-18Z" fill="#8a8694" stroke="#8a8694" stroke-width="1.51"/><path d="M1958,-46L2038,105L2089,-18Z" fill="#88858f" stroke="#88858f" stroke-width="1.51"/><path d="M1978,197L2023,282L2091,192Z" fill="#6e7d91" stroke="#6e7d91" stroke-width="1.51"/><path d="M2089,-18L2038,105L2091,192Z" fill="#7c808b" stroke="#7c808b" stroke-width="1.51"/><path d="M1958,676L2070,765L2091,652Z" fill="#225a93" stroke="#225a93" stroke-width="1.51"/><path d="M2070,765L2067,860L2091,652Z" fill="#1c518c" stroke="#1c518c" stroke-width="1.51"/><path d="M1510,1213L1292,1230L2093,1193Z" fill="#1b3883" stroke="#1b3883" stroke-width="1.51"/><path d="M1853,1187L1510,1213L2093,1193Z" fill="#1b2c80" stroke="#1b2c80" stroke-width="1.51"/><path d="M1935,1161L1853,1187L2093,1193Z" fill="#162773" stroke="#162773" stroke-width="1.51"/><path d="M2067,1002L2033,1120L2093,1193Z" fill="#172876" stroke="#172876" stroke-width="1.51"/><path d="M2091,652L2067,860L2093,1193Z" fill="#183d82" stroke="#183d82" stroke-width="1.51"/><path d="M2067,860L2067,1002L2093,1193Z" fill="#19317c" stroke="#19317c" stroke-width="1.51"/><path d="M1961,415L2054,567L2098,390Z" fill="#426e94" stroke="#426e94" stroke-width="1.51"/><path d="M2023,282L1961,415L2098,390Z" fill="#517493" stroke="#517493" stroke-width="1.51"/><path d="M2091,192L2023,282L2098,390Z" fill="#5f768d" stroke="#5f768d" stroke-width="1.51"/><path d="M2089,-18L2091,192L2098,390Z" fill="#707c89" stroke="#707c89" stroke-width="1.51"/><path d="M2054,567L2091,652L2098,390Z" fill="#306791" stroke="#306791" stroke-width="1.51"/><path d="M2091,652L2093,1193L2098,390Z" fill="#1b528b" stroke="#1b528b" stroke-width="1.51"/><path d="M2038,105L1978,197L2091,192Z" fill="#777f90" stroke="#777f90" stroke-width="1.51"/><path d="M2054,567L1958,676L2091,652Z" fill="#2a6094" stroke="#2a6094" stroke-width="1.51"/><path d="M2033,1120L1977,1128L2093,1193Z" fill="#152772" stroke="#152772" stroke-width="1.51"/><path d="M1977,1128L1935,1161L2093,1193Z" fill="#152773" stroke="#152773" stroke-width="1.51"/><path d="M1987,994L2033,1120L2067,1002Z" fill="#1b3080" stroke="#1b3080" stroke-width="1.51"/><path d="M1961,415L1957,576L2054,567Z" fill="#396d9a" stroke="#396d9a" stroke-width="1.51"/><path d="M1957,576L1958,676L2054,567Z" fill="#2f659a" stroke="#2f659a" stroke-width="1.51"/><path d="M1954,847L1987,994L2067,860Z" fill="#1d418b" stroke="#1d418b" stroke-width="1.51"/><path d="M1958,676L1929,723L2070,765Z" fill="#225a98" stroke="#225a98" stroke-width="1.51"/><path d="M1954,847L2067,860L2070,765Z" fill="#1d4a8d" stroke="#1d4a8d" stroke-width="1.51"/><path d="M1935,-116L1958,-46L2076,-108Z" fill="#8f899d" stroke="#8f899d" stroke-width="1.51"/><path d="M1958,-46L1954,112L2038,105Z" fill="#878695" stroke="#878695" stroke-width="1.51"/><path d="M1929,723L1954,847L2070,765Z" fill="#215294" stroke="#215294" stroke-width="1.51"/><path d="M1913,352L1961,415L2023,282Z" fill="#577899" stroke="#577899" stroke-width="1.51"/><path d="M1987,994L1977,1128L2033,1120Z" fill="#1c2c80" stroke="#1c2c80" stroke-width="1.51"/><path d="M1954,112L1978,197L2038,105Z" fill="#7d8394" stroke="#7d8394" stroke-width="1.51"/><path d="M1874,469L1957,576L1961,415Z" fill="#4371a0" stroke="#4371a0" stroke-width="1.51"/><path d="M1978,197L1913,352L2023,282Z" fill="#677c98" stroke="#677c98" stroke-width="1.51"/><path d="M1292,-145L1369,-138L1526,-154Z" fill="#a0b8c4" stroke="#a0b8c4" stroke-width="1.51"/><path d="M1828,26L1853,105L1954,112Z" fill="#8b8ba1" stroke="#8b8ba1" stroke-width="1.51"/><path d="M1929,723L1877,741L1954,847Z" fill="#26569c" stroke="#26569c" stroke-width="1.51"/><path d="M1828,26L1954,112L1958,-46Z" fill="#8e8b9c" stroke="#8e8b9c" stroke-width="1.51"/><path d="M1846,1055L1935,1161L1977,1128Z" fill="#1d2d83" stroke="#1d2d83" stroke-width="1.51"/><path d="M1862,233L1913,352L1978,197Z" fill="#6e809d" stroke="#6e809d" stroke-width="1.51"/><path d="M1864,868L1802,950L1987,994Z" fill="#234295" stroke="#234295" stroke-width="1.51"/><path d="M1802,950L1846,1055L1987,994Z" fill="#233b93" stroke="#233b93" stroke-width="1.51"/><path d="M1954,847L1864,868L1987,994Z" fill="#204492" stroke="#204492" stroke-width="1.51"/><path d="M1846,1055L1977,1128L1987,994Z" fill="#1f3189" stroke="#1f3189" stroke-width="1.51"/><path d="M1954,112L1862,233L1978,197Z" fill="#7d849b" stroke="#7d849b" stroke-width="1.51"/><path d="M1639,-136L1729,-109L1804,-116Z" fill="#9c9ab6" stroke="#9c9ab6" stroke-width="1.51"/><path d="M1853,105L1862,233L1954,112Z" fill="#83889f" stroke="#83889f" stroke-width="1.51"/><path d="M1877,741L1864,868L1954,847Z" fill="#25519c" stroke="#25519c" stroke-width="1.51"/><path d="M1874,469L1822,503L1957,576Z" fill="#4072a5" stroke="#4072a5" stroke-width="1.51"/><path d="M1957,576L1846,681L1958,676Z" fill="#2f65a1" stroke="#2f65a1" stroke-width="1.51"/><path d="M1913,352L1874,469L1961,415Z" fill="#5076a0" stroke="#5076a0" stroke-width="1.51"/><path d="M1935,-116L1804,-116L1958,-46Z" fill="#958ea8" stroke="#958ea8" stroke-width="1.51"/><path d="M1804,-116L1828,26L1958,-46Z" fill="#968fa7" stroke="#968fa7" stroke-width="1.51"/><path d="M1846,681L1929,723L1958,676Z" fill="#2a60a1" stroke="#2a60a1" stroke-width="1.51"/><path d="M1822,503L1846,681L1957,576Z" fill="#376da6" stroke="#376da6" stroke-width="1.51"/><path d="M1862,233L1805,327L1913,352Z" fill="#6980a5" stroke="#6980a5" stroke-width="1.51"/><path d="M1846,681L1877,741L1929,723Z" fill="#2960a4" stroke="#2960a4" stroke-width="1.51"/><path d="M1846,1055L1853,1187L1935,1161Z" fill="#1e2e84" stroke="#1e2e84" stroke-width="1.51"/><path d="M1822,503L1757,648L1846,681Z" fill="#376eac" stroke="#376eac" stroke-width="1.51"/><path d="M1805,327L1874,469L1913,352Z" fill="#587ba5" stroke="#587ba5" stroke-width="1.51"/><path d="M1805,327L1747,345L1822,503Z" fill="#587fab" stroke="#587fab" stroke-width="1.51"/><path d="M1747,345L1709,454L1822,503Z" fill="#527fad" stroke="#527fad" stroke-width="1.51"/><path d="M1846,1055L1763,1128L1853,1187Z" fill="#21318c" stroke="#21318c" stroke-width="1.51"/><path d="M1853,105L1710,213L1862,233Z" fill="#838ba7" stroke="#838ba7" stroke-width="1.51"/><path d="M1718,746L1700,868L1864,868Z" fill="#2858a5" stroke="#2858a5" stroke-width="1.51"/><path d="M1805,327L1822,503L1874,469Z" fill="#5279a9" stroke="#5279a9" stroke-width="1.51"/><path d="M1718,746L1864,868L1877,741Z" fill="#2a59a6" stroke="#2a59a6" stroke-width="1.51"/><path d="M1846,681L1718,746L1877,741Z" fill="#2b63aa" stroke="#2b63aa" stroke-width="1.51"/><path d="M1758,70L1710,213L1853,105Z" fill="#8a8fa8" stroke="#8a8fa8" stroke-width="1.51"/><path d="M1700,868L1802,950L1864,868Z" fill="#264da0" stroke="#264da0" stroke-width="1.51"/><path d="M1804,-116L1729,17L1828,26Z" fill="#9894aa" stroke="#9894aa" stroke-width="1.51"/><path d="M1828,26L1758,70L1853,105Z" fill="#908fa7" stroke="#908fa7" stroke-width="1.51"/><path d="M1710,213L1805,327L1862,233Z" fill="#7587a9" stroke="#7587a9" stroke-width="1.51"/><path d="M1700,574L1757,648L1822,503Z" fill="#3a75ae" stroke="#3a75ae" stroke-width="1.51"/><path d="M1757,648L1718,746L1846,681Z" fill="#2e69ad" stroke="#2e69ad" stroke-width="1.51"/><path d="M1763,1128L1727,1187L1853,1187Z" fill="#1e3186" stroke="#1e3186" stroke-width="1.51"/><path d="M1729,-109L1729,17L1804,-116Z" fill="#9a97b0" stroke="#9a97b0" stroke-width="1.51"/><path d="M1802,950L1692,1017L1846,1055Z" fill="#264099" stroke="#264099" stroke-width="1.51"/><path d="M1692,1017L1763,1128L1846,1055Z" fill="#263a97" stroke="#263a97" stroke-width="1.51"/><path d="M838,1204L768,1207L992,1215Z" fill="#3e6c94" stroke="#3e6c94" stroke-width="1.51"/><path d="M1710,213L1747,345L1805,327Z" fill="#6c88ab" stroke="#6c88ab" stroke-width="1.51"/><path d="M1729,17L1758,70L1828,26Z" fill="#9493a8" stroke="#9493a8" stroke-width="1.51"/><path d="M1709,454L1700,574L1822,503Z" fill="#437baf" stroke="#437baf" stroke-width="1.51"/><path d="M1700,868L1692,1017L1802,950Z" fill="#264b9f" stroke="#264b9f" stroke-width="1.51"/><path d="M1580,82L1601,196L1710,213Z" fill="#869aad" stroke="#869aad" stroke-width="1.51"/><path d="M1729,-109L1648,-40L1729,17Z" fill="#9a9baf" stroke="#9a9baf" stroke-width="1.51"/><path d="M1710,213L1597,288L1747,345Z" fill="#6f8ead" stroke="#6f8ead" stroke-width="1.51"/><path d="M1580,82L1710,213L1758,70Z" fill="#8b97ab" stroke="#8b97ab" stroke-width="1.51"/><path d="M1613,1106L1727,1187L1763,1128Z" fill="#21398d" stroke="#21398d" stroke-width="1.51"/><path d="M1692,1017L1613,1106L1763,1128Z" fill="#253e97" stroke="#253e97" stroke-width="1.51"/><path d="M1615,643L1718,746L1757,648Z" fill="#2e6faf" stroke="#2e6faf" stroke-width="1.51"/><path d="M1729,17L1580,82L1758,70Z" fill="#9299ab" stroke="#9299ab" stroke-width="1.51"/><path d="M1700,574L1615,643L1757,648Z" fill="#3476b0" stroke="#3476b0" stroke-width="1.51"/><path d="M1613,1106L1637,1195L1727,1187Z" fill="#1f3b8b" stroke="#1f3b8b" stroke-width="1.51"/><path d="M1590,395L1709,454L1747,345Z" fill="#5786ae" stroke="#5786ae" stroke-width="1.51"/><path d="M1597,288L1590,395L1747,345Z" fill="#608daf" stroke="#608daf" stroke-width="1.51"/><path d="M1601,994L1692,1017L1700,868Z" fill="#264ea0" stroke="#264ea0" stroke-width="1.51"/><path d="M1611,553L1700,574L1709,454Z" fill="#3f80b1" stroke="#3f80b1" stroke-width="1.51"/><path d="M1625,848L1700,868L1718,746Z" fill="#275ea8" stroke="#275ea8" stroke-width="1.51"/><path d="M1615,643L1597,735L1718,746Z" fill="#2871b1" stroke="#2871b1" stroke-width="1.51"/><path d="M1639,-136L1648,-40L1729,-109Z" fill="#9b9eb5" stroke="#9b9eb5" stroke-width="1.51"/><path d="M1648,-40L1580,82L1729,17Z" fill="#979dac" stroke="#979dac" stroke-width="1.51"/><path d="M1625,848L1601,994L1700,868Z" fill="#2456a4" stroke="#2456a4" stroke-width="1.51"/><path d="M1597,735L1625,848L1718,746Z" fill="#2767ac" stroke="#2767ac" stroke-width="1.51"/><path d="M1590,395L1611,553L1709,454Z" fill="#4a86b1" stroke="#4a86b1" stroke-width="1.51"/><path d="M1601,196L1597,288L1710,213Z" fill="#7995ad" stroke="#7995ad" stroke-width="1.51"/><path d="M1611,553L1615,643L1700,574Z" fill="#367cb2" stroke="#367cb2" stroke-width="1.51"/><path d="M1601,994L1613,1106L1692,1017Z" fill="#26479d" stroke="#26479d" stroke-width="1.51"/><path d="M1590,395L1541,538L1611,553Z" fill="#4389b4" stroke="#4389b4" stroke-width="1.51"/><path d="M1601,994L1542,1063L1613,1106Z" fill="#26489e" stroke="#26489e" stroke-width="1.51"/><path d="M1504,976L1601,994L1625,848Z" fill="#2556a4" stroke="#2556a4" stroke-width="1.51"/><path d="M1507,843L1504,976L1625,848Z" fill="#225ea8" stroke="#225ea8" stroke-width="1.51"/><path d="M1526,-154L1531,-32L1639,-136Z" fill="#9ca7ba" stroke="#9ca7ba" stroke-width="1.51"/><path d="M1639,-136L1531,-32L1648,-40Z" fill="#9ba3b4" stroke="#9ba3b4" stroke-width="1.51"/><path d="M1531,-32L1580,82L1648,-40Z" fill="#98a3ae" stroke="#98a3ae" stroke-width="1.51"/><path d="M1580,82L1532,136L1601,196Z" fill="#899faf" stroke="#899faf" stroke-width="1.51"/><path d="M1597,735L1519,772L1625,848Z" fill="#256bae" stroke="#256bae" stroke-width="1.51"/><path d="M1613,1106L1510,1213L1637,1195Z" fill="#1e3f8c" stroke="#1e3f8c" stroke-width="1.51"/><path d="M1499,399L1541,538L1590,395Z" fill="#4d8eb4" stroke="#4d8eb4" stroke-width="1.51"/><path d="M1539,200L1597,288L1601,196Z" fill="#7a9aaf" stroke="#7a9aaf" stroke-width="1.51"/><path d="M1611,553L1541,538L1615,643Z" fill="#3582b4" stroke="#3582b4" stroke-width="1.51"/><path d="M1519,772L1507,843L1625,848Z" fill="#2468ad" stroke="#2468ad" stroke-width="1.51"/><path d="M1517,296L1590,395L1597,288Z" fill="#6494b1" stroke="#6494b1" stroke-width="1.51"/><path d="M1542,1063L1510,1213L1613,1106Z" fill="#224494" stroke="#224494" stroke-width="1.51"/><path d="M1487,630L1597,735L1615,643Z" fill="#2b7ab4" stroke="#2b7ab4" stroke-width="1.51"/><path d="M1541,538L1487,630L1615,643Z" fill="#3182b5" stroke="#3182b5" stroke-width="1.51"/><path d="M1532,136L1539,200L1601,196Z" fill="#849fb0" stroke="#849fb0" stroke-width="1.51"/><path d="M1517,296L1499,399L1590,395Z" fill="#5a94b2" stroke="#5a94b2" stroke-width="1.51"/><path d="M1487,630L1519,772L1597,735Z" fill="#2478b4" stroke="#2478b4" stroke-width="1.51"/><path d="M1539,200L1517,296L1597,288Z" fill="#739ab1" stroke="#739ab1" stroke-width="1.51"/><path d="M1504,976L1542,1063L1601,994Z" fill="#2550a1" stroke="#2550a1" stroke-width="1.51"/><path d="M1429,1160L1510,1213L1542,1063Z" fill="#214894" stroke="#214894" stroke-width="1.51"/><path d="M1427,1113L1429,1160L1542,1063Z" fill="#244c9b" stroke="#244c9b" stroke-width="1.51"/><path d="M1417,16L1532,136L1580,82Z" fill="#90a7b0" stroke="#90a7b0" stroke-width="1.51"/><path d="M1531,-32L1417,16L1580,82Z" fill="#97a9b0" stroke="#97a9b0" stroke-width="1.51"/><path d="M1487,630L1394,646L1519,772Z" fill="#2781b8" stroke="#2781b8" stroke-width="1.51"/><path d="M1526,-154L1369,-138L1531,-32Z" fill="#9dafbd" stroke="#9dafbd" stroke-width="1.51"/><path d="M1369,-138L1417,16L1531,-32Z" fill="#9cb1b9" stroke="#9cb1b9" stroke-width="1.51"/><path d="M1417,16L1423,118L1532,136Z" fill="#90abb3" stroke="#90abb3" stroke-width="1.51"/><path d="M1428,244L1517,296L1539,200Z" fill="#779fb3" stroke="#779fb3" stroke-width="1.51"/><path d="M1532,136L1423,118L1539,200Z" fill="#88a5b2" stroke="#88a5b2" stroke-width="1.51"/><path d="M1499,399L1437,530L1541,538Z" fill="#4390b7" stroke="#4390b7" stroke-width="1.51"/><path d="M1437,530L1487,630L1541,538Z" fill="#358bb8" stroke="#358bb8" stroke-width="1.51"/><path d="M1504,976L1427,1113L1542,1063Z" fill="#2750a2" stroke="#2750a2" stroke-width="1.51"/><path d="M1423,118L1428,244L1539,200Z" fill="#83a7b3" stroke="#83a7b3" stroke-width="1.51"/><path d="M599,-132L730,-100L1040,-124Z" fill="#b7e0c6" stroke="#b7e0c6" stroke-width="1.51"/><path d="M1380,897L1504,976L1507,843Z" fill="#2363ab" stroke="#2363ab" stroke-width="1.51"/><path d="M1391,466L1437,530L1499,399Z" fill="#4897b8" stroke="#4897b8" stroke-width="1.51"/><path d="M1429,1160L1292,1230L1510,1213Z" fill="#1e4b8e" stroke="#1e4b8e" stroke-width="1.51"/><path d="M1374,282L1499,399L1517,296Z" fill="#649db5" stroke="#649db5" stroke-width="1.51"/><path d="M1394,646L1363,783L1519,772Z" fill="#227fb8" stroke="#227fb8" stroke-width="1.51"/><path d="M1368,981L1427,1113L1504,976Z" fill="#2758a6" stroke="#2758a6" stroke-width="1.51"/><path d="M1428,244L1374,282L1517,296Z" fill="#71a3b5" stroke="#71a3b5" stroke-width="1.51"/><path d="M1363,783L1507,843L1519,772Z" fill="#2372b2" stroke="#2372b2" stroke-width="1.51"/><path d="M1380,897L1368,981L1504,976Z" fill="#2662aa" stroke="#2662aa" stroke-width="1.51"/><path d="M1363,783L1380,897L1507,843Z" fill="#2370b1" stroke="#2370b1" stroke-width="1.51"/><path d="M1374,282L1391,466L1499,399Z" fill="#579db8" stroke="#579db8" stroke-width="1.51"/><path d="M1437,530L1394,646L1487,630Z" fill="#308cba" stroke="#308cba" stroke-width="1.51"/><path d="M1040,-124L1143,-106L1292,-145Z" fill="#a4cbc8" stroke="#a4cbc8" stroke-width="1.51"/><path d="M1374,282L1299,414L1391,466Z" fill="#57a3ba" stroke="#57a3ba" stroke-width="1.51"/><path d="M1327,668L1363,783L1394,646Z" fill="#2389bc" stroke="#2389bc" stroke-width="1.51"/><path d="M1369,-138L1316,-33L1417,16Z" fill="#9db8bb" stroke="#9db8bb" stroke-width="1.51"/><path d="M1417,16L1291,93L1423,118Z" fill="#93b4b6" stroke="#93b4b6" stroke-width="1.51"/><path d="M1368,981L1322,1059L1427,1113Z" fill="#2a5aa7" stroke="#2a5aa7" stroke-width="1.51"/><path d="M1423,118L1326,238L1428,244Z" fill="#82acb6" stroke="#82acb6" stroke-width="1.51"/><path d="M1265,578L1394,646L1437,530Z" fill="#3194bd" stroke="#3194bd" stroke-width="1.51"/><path d="M1391,466L1265,578L1437,530Z" fill="#3a9abd" stroke="#3a9abd" stroke-width="1.51"/><path d="M1296,309L1299,414L1374,282Z" fill="#62a9bb" stroke="#62a9bb" stroke-width="1.51"/><path d="M1291,93L1326,238L1423,118Z" fill="#8ab3b7" stroke="#8ab3b7" stroke-width="1.51"/><path d="M1326,238L1374,282L1428,244Z" fill="#76aab7" stroke="#76aab7" stroke-width="1.51"/><path d="M1427,1113L1322,1059L1429,1160Z" fill="#26539e" stroke="#26539e" stroke-width="1.51"/><path d="M1322,1059L1292,1230L1429,1160Z" fill="#235499" stroke="#235499" stroke-width="1.51"/><path d="M1316,-33L1291,93L1417,16Z" fill="#99b9b7" stroke="#99b9b7" stroke-width="1.51"/><path d="M1309,783L1328,908L1363,783Z" fill="#237ab6" stroke="#237ab6" stroke-width="1.51"/><path d="M1327,668L1309,783L1363,783Z" fill="#2185bb" stroke="#2185bb" stroke-width="1.51"/><path d="M1328,908L1368,981L1380,897Z" fill="#256aae" stroke="#256aae" stroke-width="1.51"/><path d="M1363,783L1328,908L1380,897Z" fill="#2373b2" stroke="#2373b2" stroke-width="1.51"/><path d="M1299,414L1265,578L1391,466Z" fill="#42a1be" stroke="#42a1be" stroke-width="1.51"/><path d="M1265,578L1327,668L1394,646Z" fill="#2b93be" stroke="#2b93be" stroke-width="1.51"/><path d="M1328,908L1317,982L1368,981Z" fill="#2768ad" stroke="#2768ad" stroke-width="1.51"/><path d="M1317,982L1322,1059L1368,981Z" fill="#2962ab" stroke="#2962ab" stroke-width="1.51"/><path d="M1292,-145L1316,-33L1369,-138Z" fill="#a0bdc3" stroke="#a0bdc3" stroke-width="1.51"/><path d="M1326,238L1296,309L1374,282Z" fill="#71adb9" stroke="#71adb9" stroke-width="1.51"/><path d="M730,-100L838,-87L1040,-124Z" fill="#b1dcc5" stroke="#b1dcc5" stroke-width="1.51"/><path d="M1201,506L1265,578L1299,414Z" fill="#3ea5c1" stroke="#3ea5c1" stroke-width="1.51"/><path d="M1159,1096L1167,1218L1292,1230Z" fill="#255c98" stroke="#255c98" stroke-width="1.51"/><path d="M1204,634L1163,777L1309,783Z" fill="#2090bf" stroke="#2090bf" stroke-width="1.51"/><path d="M1150,6L1291,93L1316,-33Z" fill="#9ac1ba" stroke="#9ac1ba" stroke-width="1.51"/><path d="M1209,876L1214,1010L1317,982Z" fill="#2770b1" stroke="#2770b1" stroke-width="1.51"/><path d="M1159,1096L1292,1230L1322,1059Z" fill="#275da0" stroke="#275da0" stroke-width="1.51"/><path d="M1317,982L1214,1010L1322,1059Z" fill="#2966ac" stroke="#2966ac" stroke-width="1.51"/><path d="M1291,93L1185,171L1326,238Z" fill="#88bbba" stroke="#88bbba" stroke-width="1.51"/><path d="M1204,634L1309,783L1327,668Z" fill="#2290bf" stroke="#2290bf" stroke-width="1.51"/><path d="M1265,578L1204,634L1327,668Z" fill="#2a99c1" stroke="#2a99c1" stroke-width="1.51"/><path d="M1209,876L1317,982L1328,908Z" fill="#2571b1" stroke="#2571b1" stroke-width="1.51"/><path d="M1309,783L1209,876L1328,908Z" fill="#237ab6" stroke="#237ab6" stroke-width="1.51"/><path d="M1214,1010L1159,1096L1322,1059Z" fill="#2d66ab" stroke="#2d66ab" stroke-width="1.51"/><path d="M1185,171L1296,309L1326,238Z" fill="#7ab5bb" stroke="#7ab5bb" stroke-width="1.51"/><path d="M1292,-145L1143,-106L1316,-33Z" fill="#a0c5c5" stroke="#a0c5c5" stroke-width="1.51"/><path d="M1296,309L1168,354L1299,414Z" fill="#5baebe" stroke="#5baebe" stroke-width="1.51"/><path d="M1143,-106L1150,6L1316,-33Z" fill="#a0c7c0" stroke="#a0c7c0" stroke-width="1.51"/><path d="M-128,-135L199,-130L338,-154Z" fill="#f2fac1" stroke="#f2fac1" stroke-width="1.51"/><path d="M1176,448L1201,506L1299,414Z" fill="#49aac0" stroke="#49aac0" stroke-width="1.51"/><path d="M1163,777L1209,876L1309,783Z" fill="#2385ba" stroke="#2385ba" stroke-width="1.51"/><path d="M1098,1200L992,1215L1167,1218Z" fill="#2b6193" stroke="#2b6193" stroke-width="1.51"/><path d="M1150,6L1143,63L1291,93Z" fill="#99c5bb" stroke="#99c5bb" stroke-width="1.51"/><path d="M1185,171L1168,354L1296,309Z" fill="#72b7bd" stroke="#72b7bd" stroke-width="1.51"/><path d="M1168,354L1176,448L1299,414Z" fill="#54aebf" stroke="#54aebf" stroke-width="1.51"/><path d="M1143,63L1185,171L1291,93Z" fill="#91c1bb" stroke="#91c1bb" stroke-width="1.51"/><path d="M1201,506L1204,634L1265,578Z" fill="#31a1c2" stroke="#31a1c2" stroke-width="1.51"/><path d="M1044,225L1050,331L1168,354Z" fill="#70bdbe" stroke="#70bdbe" stroke-width="1.51"/><path d="M1044,225L1168,354L1185,171Z" fill="#7bbebd" stroke="#7bbebd" stroke-width="1.51"/><path d="M1053,672L1163,777L1204,634Z" fill="#299ac2" stroke="#299ac2" stroke-width="1.51"/><path d="M1201,506L1102,517L1204,634Z" fill="#36a7c3" stroke="#36a7c3" stroke-width="1.51"/><path d="M1163,777L1091,902L1209,876Z" fill="#2a84b8" stroke="#2a84b8" stroke-width="1.51"/><path d="M1091,902L1103,985L1209,876Z" fill="#2e7bb4" stroke="#2e7bb4" stroke-width="1.51"/><path d="M1209,876L1103,985L1214,1010Z" fill="#2c74b1" stroke="#2c74b1" stroke-width="1.51"/><path d="M1103,985L1159,1096L1214,1010Z" fill="#316dad" stroke="#316dad" stroke-width="1.51"/><path d="M1159,1096L1098,1200L1167,1218Z" fill="#2b629a" stroke="#2b629a" stroke-width="1.51"/><path d="M1143,63L1092,123L1185,171Z" fill="#92c6bc" stroke="#92c6bc" stroke-width="1.51"/><path d="M1102,517L1053,672L1204,634Z" fill="#34a4c3" stroke="#34a4c3" stroke-width="1.51"/><path d="M1168,354L1100,392L1176,448Z" fill="#58b3bf" stroke="#58b3bf" stroke-width="1.51"/><path d="M1176,448L1102,517L1201,506Z" fill="#44acc2" stroke="#44acc2" stroke-width="1.51"/><path d="M1053,672L1073,783L1163,777Z" fill="#2b97c0" stroke="#2b97c0" stroke-width="1.51"/><path d="M1073,783L1091,902L1163,777Z" fill="#2d8bba" stroke="#2d8bba" stroke-width="1.51"/><path d="M1092,123L1044,225L1185,171Z" fill="#8cc6bc" stroke="#8cc6bc" stroke-width="1.51"/><path d="M1143,-106L1064,-23L1150,6Z" fill="#a3ccc0" stroke="#a3ccc0" stroke-width="1.51"/><path d="M1103,985L1062,1095L1159,1096Z" fill="#356dac" stroke="#356dac" stroke-width="1.51"/><path d="M1100,392L1102,517L1176,448Z" fill="#4eb1c1" stroke="#4eb1c1" stroke-width="1.51"/><path d="M1062,1095L1098,1200L1159,1096Z" fill="#3066a1" stroke="#3066a1" stroke-width="1.51"/><path d="M1050,331L1100,392L1168,354Z" fill="#60b8bf" stroke="#60b8bf" stroke-width="1.51"/><path d="M1064,-23L1143,63L1150,6Z" fill="#a0cbbb" stroke="#a0cbbb" stroke-width="1.51"/><path d="M1040,-124L1064,-23L1143,-106Z" fill="#a5d0c4" stroke="#a5d0c4" stroke-width="1.51"/><path d="M1064,-23L1092,123L1143,63Z" fill="#9bcbbb" stroke="#9bcbbb" stroke-width="1.51"/><path d="M1073,783L990,888L1091,902Z" fill="#3189b8" stroke="#3189b8" stroke-width="1.51"/><path d="M1064,-23L926,90L1092,123Z" fill="#9dcfbc" stroke="#9dcfbc" stroke-width="1.51"/><path d="M1062,1095L992,1215L1098,1200Z" fill="#30679b" stroke="#30679b" stroke-width="1.51"/><path d="M1100,392L921,429L1102,517Z" fill="#52b6c1" stroke="#52b6c1" stroke-width="1.51"/><path d="M921,429L946,578L1102,517Z" fill="#47b6c3" stroke="#47b6c3" stroke-width="1.51"/><path d="M946,578L1053,672L1102,517Z" fill="#3aacc3" stroke="#3aacc3" stroke-width="1.51"/><path d="M951,989L1062,1095L1103,985Z" fill="#3975af" stroke="#3975af" stroke-width="1.51"/><path d="M1091,902L990,888L1103,985Z" fill="#3380b4" stroke="#3380b4" stroke-width="1.51"/><path d="M990,888L951,989L1103,985Z" fill="#377fb3" stroke="#377fb3" stroke-width="1.51"/><path d="M441,1186L159,1239L620,1215Z" fill="#727d8e" stroke="#727d8e" stroke-width="1.51"/><path d="M1050,331L921,429L1100,392Z" fill="#5fbcc0" stroke="#5fbcc0" stroke-width="1.51"/><path d="M950,-19L926,90L1064,-23Z" fill="#a3d4bc" stroke="#a3d4bc" stroke-width="1.51"/><path d="M954,208L1044,225L1092,123Z" fill="#8dcabc" stroke="#8dcabc" stroke-width="1.51"/><path d="M926,90L954,208L1092,123Z" fill="#94cfbc" stroke="#94cfbc" stroke-width="1.51"/><path d="M838,-87L980,-84L1040,-124Z" fill="#aad9c7" stroke="#aad9c7" stroke-width="1.51"/><path d="M1044,225L979,283L1050,331Z" fill="#78c4be" stroke="#78c4be" stroke-width="1.51"/><path d="M947,1086L992,1215L1062,1095Z" fill="#376da2" stroke="#376da2" stroke-width="1.51"/><path d="M951,989L947,1086L1062,1095Z" fill="#3d75ad" stroke="#3d75ad" stroke-width="1.51"/><path d="M1040,-124L980,-84L1064,-23Z" fill="#a7d3c4" stroke="#a7d3c4" stroke-width="1.51"/><path d="M1053,672L945,760L1073,783Z" fill="#309cc0" stroke="#309cc0" stroke-width="1.51"/><path d="M945,760L990,888L1073,783Z" fill="#3393bc" stroke="#3393bc" stroke-width="1.51"/><path d="M946,578L934,664L1053,672Z" fill="#39abc3" stroke="#39abc3" stroke-width="1.51"/><path d="M980,-84L950,-19L1064,-23Z" fill="#a7d5c0" stroke="#a7d5c0" stroke-width="1.51"/><path d="M979,283L921,429L1050,331Z" fill="#67c1c0" stroke="#67c1c0" stroke-width="1.51"/><path d="M934,664L945,760L1053,672Z" fill="#33a4c2" stroke="#33a4c2" stroke-width="1.51"/><path d="M954,208L979,283L1044,225Z" fill="#82c9bd" stroke="#82c9bd" stroke-width="1.51"/><path d="M921,429L876,559L946,578Z" fill="#4cb9c3" stroke="#4cb9c3" stroke-width="1.51"/><path d="M870,328L921,429L979,283Z" fill="#6cc4bf" stroke="#6cc4bf" stroke-width="1.51"/><path d="M945,760L843,792L990,888Z" fill="#3b97bb" stroke="#3b97bb" stroke-width="1.51"/><path d="M843,792L823,903L990,888Z" fill="#4291b8" stroke="#4291b8" stroke-width="1.51"/><path d="M823,903L951,989L990,888Z" fill="#3f87b4" stroke="#3f87b4" stroke-width="1.51"/><path d="M947,1086L838,1204L992,1215Z" fill="#3a6e9b" stroke="#3a6e9b" stroke-width="1.51"/><path d="M926,90L861,124L954,208Z" fill="#98d3bc" stroke="#98d3bc" stroke-width="1.51"/><path d="M954,208L870,328L979,283Z" fill="#7ec9be" stroke="#7ec9be" stroke-width="1.51"/><path d="M838,-87L950,-19L980,-84Z" fill="#abdac2" stroke="#abdac2" stroke-width="1.51"/><path d="M861,448L876,559L921,429Z" fill="#58bdc2" stroke="#58bdc2" stroke-width="1.51"/><path d="M876,559L833,612L934,664Z" fill="#48b1c3" stroke="#48b1c3" stroke-width="1.51"/><path d="M934,664L843,792L945,760Z" fill="#3da2c0" stroke="#3da2c0" stroke-width="1.51"/><path d="M876,559L934,664L946,578Z" fill="#43b1c3" stroke="#43b1c3" stroke-width="1.51"/><path d="M824,1091L838,1204L947,1086Z" fill="#4572a2" stroke="#4572a2" stroke-width="1.51"/><path d="M844,-25L926,90L950,-19Z" fill="#a8d8ba" stroke="#a8d8ba" stroke-width="1.51"/><path d="M838,-87L844,-25L950,-19Z" fill="#aedbc0" stroke="#aedbc0" stroke-width="1.51"/><path d="M824,1091L947,1086L951,989Z" fill="#4578ad" stroke="#4578ad" stroke-width="1.51"/><path d="M821,965L824,1091L951,989Z" fill="#497eaf" stroke="#497eaf" stroke-width="1.51"/><path d="M823,903L821,965L951,989Z" fill="#4785b2" stroke="#4785b2" stroke-width="1.51"/><path d="M820,181L870,328L954,208Z" fill="#8acebc" stroke="#8acebc" stroke-width="1.51"/><path d="M861,124L820,181L954,208Z" fill="#98d3bc" stroke="#98d3bc" stroke-width="1.51"/><path d="M870,328L861,448L921,429Z" fill="#66c2c0" stroke="#66c2c0" stroke-width="1.51"/><path d="M844,-25L861,124L926,90Z" fill="#a5d8bb" stroke="#a5d8bb" stroke-width="1.51"/><path d="M833,612L843,792L934,664Z" fill="#44aac1" stroke="#44aac1" stroke-width="1.51"/><path d="M762,859L823,903L843,792Z" fill="#4c95b7" stroke="#4c95b7" stroke-width="1.51"/><path d="M833,612L735,645L843,792Z" fill="#4dadc0" stroke="#4dadc0" stroke-width="1.51"/><path d="M735,645L722,758L843,792Z" fill="#50a8be" stroke="#50a8be" stroke-width="1.51"/><path d="M844,-25L771,103L861,124Z" fill="#a8daba" stroke="#a8daba" stroke-width="1.51"/><path d="M820,181L750,210L870,328Z" fill="#8fd1bb" stroke="#8fd1bb" stroke-width="1.51"/><path d="M750,210L754,357L870,328Z" fill="#83cdbc" stroke="#83cdbc" stroke-width="1.51"/><path d="M777,397L861,448L870,328Z" fill="#6cc4bf" stroke="#6cc4bf" stroke-width="1.51"/><path d="M861,448L720,543L876,559Z" fill="#59bdc2" stroke="#59bdc2" stroke-width="1.51"/><path d="M720,543L833,612L876,559Z" fill="#53b8c1" stroke="#53b8c1" stroke-width="1.51"/><path d="M821,965L775,970L824,1091Z" fill="#4f81ae" stroke="#4f81ae" stroke-width="1.51"/><path d="M754,357L777,397L870,328Z" fill="#74c8bd" stroke="#74c8bd" stroke-width="1.51"/><path d="M824,1091L768,1207L838,1204Z" fill="#48719a" stroke="#48719a" stroke-width="1.51"/><path d="M726,-5L771,103L844,-25Z" fill="#b0ddb9" stroke="#b0ddb9" stroke-width="1.51"/><path d="M777,397L720,543L861,448Z" fill="#65c2c0" stroke="#65c2c0" stroke-width="1.51"/><path d="M771,103L820,181L861,124Z" fill="#a0d7ba" stroke="#a0d7ba" stroke-width="1.51"/><path d="M730,-100L726,-5L838,-87Z" fill="#b6e0bf" stroke="#b6e0bf" stroke-width="1.51"/><path d="M838,-87L726,-5L844,-25Z" fill="#b2debe" stroke="#b2debe" stroke-width="1.51"/><path d="M775,970L717,1089L824,1091Z" fill="#547dac" stroke="#547dac" stroke-width="1.51"/><path d="M722,758L762,859L843,792Z" fill="#4f9eba" stroke="#4f9eba" stroke-width="1.51"/><path d="M717,1089L768,1207L824,1091Z" fill="#4f76a1" stroke="#4f76a1" stroke-width="1.51"/><path d="M338,-154L441,-120L599,-132Z" fill="#d8f0c3" stroke="#d8f0c3" stroke-width="1.51"/><path d="M775,970L821,965L823,903Z" fill="#4e89b2" stroke="#4e89b2" stroke-width="1.51"/><path d="M720,543L735,645L833,612Z" fill="#57b7c1" stroke="#57b7c1" stroke-width="1.51"/><path d="M771,103L750,210L820,181Z" fill="#9fd7ba" stroke="#9fd7ba" stroke-width="1.51"/><path d="M762,859L775,970L823,903Z" fill="#4f8eb4" stroke="#4f8eb4" stroke-width="1.51"/><path d="M750,210L637,316L754,357Z" fill="#8bd0bb" stroke="#8bd0bb" stroke-width="1.51"/><path d="M620,170L750,210L771,103Z" fill="#a5dab8" stroke="#a5dab8" stroke-width="1.51"/><path d="M762,859L632,950L775,970Z" fill="#568eb2" stroke="#568eb2" stroke-width="1.51"/><path d="M632,950L717,1089L775,970Z" fill="#5985ad" stroke="#5985ad" stroke-width="1.51"/><path d="M650,522L720,543L777,397Z" fill="#69c3bf" stroke="#69c3bf" stroke-width="1.51"/><path d="M754,357L602,442L777,397Z" fill="#76c9bd" stroke="#76c9bd" stroke-width="1.51"/><path d="M602,442L650,522L777,397Z" fill="#71c7be" stroke="#71c7be" stroke-width="1.51"/><path d="M717,1089L620,1215L768,1207Z" fill="#527599" stroke="#527599" stroke-width="1.51"/><path d="M726,-5L607,68L771,103Z" fill="#b2dfb7" stroke="#b2dfb7" stroke-width="1.51"/><path d="M624,865L632,950L762,859Z" fill="#5b95b3" stroke="#5b95b3" stroke-width="1.51"/><path d="M607,68L620,170L771,103Z" fill="#aedeb7" stroke="#aedeb7" stroke-width="1.51"/><path d="M722,758L624,865L762,859Z" fill="#589db7" stroke="#589db7" stroke-width="1.51"/><path d="M636,1097L620,1215L717,1089Z" fill="#5a799f" stroke="#5a799f" stroke-width="1.51"/><path d="M637,316L602,442L754,357Z" fill="#7fcdbc" stroke="#7fcdbc" stroke-width="1.51"/><path d="M620,170L637,316L750,210Z" fill="#9cd7b9" stroke="#9cd7b9" stroke-width="1.51"/><path d="M632,950L636,1097L717,1089Z" fill="#5f82aa" stroke="#5f82aa" stroke-width="1.51"/><path d="M628,-2L607,68L726,-5Z" fill="#bae3b6" stroke="#bae3b6" stroke-width="1.51"/><path d="M614,651L722,758L735,645Z" fill="#5bb1bf" stroke="#5bb1bf" stroke-width="1.51"/><path d="M650,522L614,651L720,543Z" fill="#64bebf" stroke="#64bebf" stroke-width="1.51"/><path d="M614,651L601,723L722,758Z" fill="#5fb0be" stroke="#5fb0be" stroke-width="1.51"/><path d="M628,-2L726,-5L730,-100Z" fill="#bae2bb" stroke="#bae2bb" stroke-width="1.51"/><path d="M720,543L614,651L735,645Z" fill="#5fb9bf" stroke="#5fb9bf" stroke-width="1.51"/><path d="M599,-132L628,-2L730,-100Z" fill="#bfe5bf" stroke="#bfe5bf" stroke-width="1.51"/><path d="M601,723L624,865L722,758Z" fill="#5fa6ba" stroke="#5fa6ba" stroke-width="1.51"/><path d="M483,527L532,659L614,651Z" fill="#75c0bd" stroke="#75c0bd" stroke-width="1.51"/><path d="M532,1175L441,1186L620,1215Z" fill="#657a93" stroke="#657a93" stroke-width="1.51"/><path d="M546,179L525,282L620,170Z" fill="#addeb7" stroke="#addeb7" stroke-width="1.51"/><path d="M601,723L527,860L624,865Z" fill="#69a3b7" stroke="#69a3b7" stroke-width="1.51"/><path d="M599,-132L498,-81L628,-2Z" fill="#c8e9be" stroke="#c8e9be" stroke-width="1.51"/><path d="M532,1175L620,1215L636,1097Z" fill="#607a98" stroke="#607a98" stroke-width="1.51"/><path d="M544,1095L532,1175L636,1097Z" fill="#677ea0" stroke="#677ea0" stroke-width="1.51"/><path d="M632,950L512,997L636,1097Z" fill="#6889ac" stroke="#6889ac" stroke-width="1.51"/><path d="M512,997L544,1095L636,1097Z" fill="#6c83a9" stroke="#6c83a9" stroke-width="1.51"/><path d="M547,436L602,442L637,316Z" fill="#85cebb" stroke="#85cebb" stroke-width="1.51"/><path d="M620,170L525,282L637,316Z" fill="#a0d8b8" stroke="#a0d8b8" stroke-width="1.51"/><path d="M483,527L614,651L650,522Z" fill="#71c3be" stroke="#71c3be" stroke-width="1.51"/><path d="M602,442L483,527L650,522Z" fill="#7ac8be" stroke="#7ac8be" stroke-width="1.51"/><path d="M527,729L527,860L601,723Z" fill="#6eacb9" stroke="#6eacb9" stroke-width="1.51"/><path d="M547,436L483,527L602,442Z" fill="#83ccbd" stroke="#83ccbd" stroke-width="1.51"/><path d="M607,68L546,179L620,170Z" fill="#b4e1b6" stroke="#b4e1b6" stroke-width="1.51"/><path d="M624,865L527,860L632,950Z" fill="#6798b2" stroke="#6798b2" stroke-width="1.51"/><path d="M525,282L547,436L637,316Z" fill="#91d3ba" stroke="#91d3ba" stroke-width="1.51"/><path d="M527,860L512,997L632,950Z" fill="#6d94af" stroke="#6d94af" stroke-width="1.51"/><path d="M489,19L607,68L628,-2Z" fill="#c2e6b5" stroke="#c2e6b5" stroke-width="1.51"/><path d="M498,-81L489,19L628,-2Z" fill="#cae9b8" stroke="#cae9b8" stroke-width="1.51"/><path d="M532,659L601,723L614,651Z" fill="#6cb7be" stroke="#6cb7be" stroke-width="1.51"/><path d="M489,19L505,68L607,68Z" fill="#c4e7b5" stroke="#c4e7b5" stroke-width="1.51"/><path d="M505,68L546,179L607,68Z" fill="#bce4b6" stroke="#bce4b6" stroke-width="1.51"/><path d="M441,-120L498,-81L599,-132Z" fill="#d2edc1" stroke="#d2edc1" stroke-width="1.51"/><path d="M532,659L527,729L601,723Z" fill="#6fb5bd" stroke="#6fb5bd" stroke-width="1.51"/><path d="M289,1161L159,1239L441,1186Z" fill="#7c8191" stroke="#7c8191" stroke-width="1.51"/><path d="M435,956L512,997L527,860Z" fill="#7696af" stroke="#7696af" stroke-width="1.51"/><path d="M419,883L435,956L527,860Z" fill="#7a9cb1" stroke="#7a9cb1" stroke-width="1.51"/><path d="M527,729L397,762L527,860Z" fill="#78adb8" stroke="#78adb8" stroke-width="1.51"/><path d="M483,527L429,577L532,659Z" fill="#80c5be" stroke="#80c5be" stroke-width="1.51"/><path d="M443,1123L532,1175L544,1095Z" fill="#6e809e" stroke="#6e809e" stroke-width="1.51"/><path d="M512,997L443,1123L544,1095Z" fill="#7585a8" stroke="#7585a8" stroke-width="1.51"/><path d="M427,178L525,282L546,179Z" fill="#b4e1b6" stroke="#b4e1b6" stroke-width="1.51"/><path d="M505,68L427,178L546,179Z" fill="#bfe5b5" stroke="#bfe5b5" stroke-width="1.51"/><path d="M525,282L446,397L547,436Z" fill="#94d4ba" stroke="#94d4ba" stroke-width="1.51"/><path d="M446,397L483,527L547,436Z" fill="#8ccfbc" stroke="#8ccfbc" stroke-width="1.51"/><path d="M429,577L414,610L532,659Z" fill="#82c3bd" stroke="#82c3bd" stroke-width="1.51"/><path d="M393,333L446,397L525,282Z" fill="#a1d9b8" stroke="#a1d9b8" stroke-width="1.51"/><path d="M414,610L397,762L527,729Z" fill="#7fbbbc" stroke="#7fbbbc" stroke-width="1.51"/><path d="M397,762L419,883L527,860Z" fill="#7ca7b5" stroke="#7ca7b5" stroke-width="1.51"/><path d="M414,610L527,729L532,659Z" fill="#7abcbd" stroke="#7abcbd" stroke-width="1.51"/><path d="M443,1123L441,1186L532,1175Z" fill="#6f7f98" stroke="#6f7f98" stroke-width="1.51"/><path d="M427,178L393,333L525,282Z" fill="#b0dfb7" stroke="#b0dfb7" stroke-width="1.51"/><path d="M383,75L427,178L505,68Z" fill="#c9eab4" stroke="#c9eab4" stroke-width="1.51"/><path d="M435,956L443,1123L512,997Z" fill="#798caa" stroke="#798caa" stroke-width="1.51"/><path d="M379,28L489,19L498,-81Z" fill="#d3edb5" stroke="#d3edb5" stroke-width="1.51"/><path d="M441,-120L379,28L498,-81Z" fill="#d7efbb" stroke="#d7efbb" stroke-width="1.51"/><path d="M489,19L383,75L505,68Z" fill="#ccebb4" stroke="#ccebb4" stroke-width="1.51"/><path d="M435,956L328,1103L443,1123Z" fill="#818ba8" stroke="#818ba8" stroke-width="1.51"/><path d="M446,397L429,577L483,527Z" fill="#8bcebc" stroke="#8bcebc" stroke-width="1.51"/><path d="M379,28L383,75L489,19Z" fill="#d2edb4" stroke="#d2edb4" stroke-width="1.51"/><path d="M291,404L429,577L446,397Z" fill="#99d4ba" stroke="#99d4ba" stroke-width="1.51"/><path d="M305,639L397,762L414,610Z" fill="#8ac1bc" stroke="#8ac1bc" stroke-width="1.51"/><path d="M313,195L393,333L427,178Z" fill="#bee5b5" stroke="#bee5b5" stroke-width="1.51"/><path d="M291,404L277,547L429,577Z" fill="#97d3bc" stroke="#97d3bc" stroke-width="1.51"/><path d="M276,973L328,1103L435,956Z" fill="#8693aa" stroke="#8693aa" stroke-width="1.51"/><path d="M326,-21L379,28L441,-120Z" fill="#dcf2b7" stroke="#dcf2b7" stroke-width="1.51"/><path d="M338,-154L326,-21L441,-120Z" fill="#e0f3be" stroke="#e0f3be" stroke-width="1.51"/><path d="M328,1103L441,1186L443,1123Z" fill="#7a849c" stroke="#7a849c" stroke-width="1.51"/><path d="M393,333L291,404L446,397Z" fill="#a4dab8" stroke="#a4dab8" stroke-width="1.51"/><path d="M397,762L316,778L419,883Z" fill="#86aeb6" stroke="#86aeb6" stroke-width="1.51"/><path d="M328,1103L289,1161L441,1186Z" fill="#7e849a" stroke="#7e849a" stroke-width="1.51"/><path d="M383,75L328,90L427,178Z" fill="#cfecb4" stroke="#cfecb4" stroke-width="1.51"/><path d="M419,883L276,973L435,956Z" fill="#849bae" stroke="#849bae" stroke-width="1.51"/><path d="M328,90L313,195L427,178Z" fill="#cceab4" stroke="#cceab4" stroke-width="1.51"/><path d="M277,547L414,610L429,577Z" fill="#8ecbbc" stroke="#8ecbbc" stroke-width="1.51"/><path d="M-128,-135L92,-99L199,-130Z" fill="#f5fbc2" stroke="#f5fbc2" stroke-width="1.51"/><path d="M305,639L316,778L397,762Z" fill="#8abcbb" stroke="#8abcbb" stroke-width="1.51"/><path d="M277,547L305,639L414,610Z" fill="#91cabc" stroke="#91cabc" stroke-width="1.51"/><path d="M316,778L261,849L419,883Z" fill="#89abb4" stroke="#89abb4" stroke-width="1.51"/><path d="M261,849L276,973L419,883Z" fill="#89a1b0" stroke="#89a1b0" stroke-width="1.51"/><path d="M313,195L288,351L393,333Z" fill="#b6e2b7" stroke="#b6e2b7" stroke-width="1.51"/><path d="M288,351L291,404L393,333Z" fill="#a9dcb7" stroke="#a9dcb7" stroke-width="1.51"/><path d="M379,28L328,90L383,75Z" fill="#d5eeb3" stroke="#d5eeb3" stroke-width="1.51"/><path d="M326,-21L328,90L379,28Z" fill="#daf0b3" stroke="#daf0b3" stroke-width="1.51"/><path d="M261,849L223,892L276,973Z" fill="#8da2af" stroke="#8da2af" stroke-width="1.51"/><path d="M305,639L212,750L316,778Z" fill="#8fbebb" stroke="#8fbebb" stroke-width="1.51"/><path d="M199,-130L206,5L326,-21Z" fill="#e6f5b8" stroke="#e6f5b8" stroke-width="1.51"/><path d="M276,973L206,1087L328,1103Z" fill="#8b8fa7" stroke="#8b8fa7" stroke-width="1.51"/><path d="M179,172L313,195L328,90Z" fill="#d2edb4" stroke="#d2edb4" stroke-width="1.51"/><path d="M326,-21L206,5L328,90Z" fill="#dff2b2" stroke="#dff2b2" stroke-width="1.51"/><path d="M199,-130L326,-21L338,-154Z" fill="#e6f5be" stroke="#e6f5be" stroke-width="1.51"/><path d="M176,461L277,547L291,404Z" fill="#a2d7bb" stroke="#a2d7bb" stroke-width="1.51"/><path d="M222,635L212,750L305,639Z" fill="#93c4bb" stroke="#93c4bb" stroke-width="1.51"/><path d="M194,358L288,351L313,195Z" fill="#b9e2b6" stroke="#b9e2b6" stroke-width="1.51"/><path d="M179,172L194,358L313,195Z" fill="#c6e8b4" stroke="#c6e8b4" stroke-width="1.51"/><path d="M206,1087L289,1161L328,1103Z" fill="#86899f" stroke="#86899f" stroke-width="1.51"/><path d="M188,69L179,172L328,90Z" fill="#d9f0b3" stroke="#d9f0b3" stroke-width="1.51"/><path d="M206,5L188,69L328,90Z" fill="#def2b3" stroke="#def2b3" stroke-width="1.51"/><path d="M277,547L222,635L305,639Z" fill="#95cbbc" stroke="#95cbbc" stroke-width="1.51"/><path d="M212,750L261,849L316,778Z" fill="#8fb3b6" stroke="#8fb3b6" stroke-width="1.51"/><path d="M215,973L206,1087L276,973Z" fill="#8e96a9" stroke="#8e96a9" stroke-width="1.51"/><path d="M223,892L215,973L276,973Z" fill="#8e9eae" stroke="#8e9eae" stroke-width="1.51"/><path d="M176,461L175,521L277,547Z" fill="#a1d6bb" stroke="#a1d6bb" stroke-width="1.51"/><path d="M288,351L194,358L291,404Z" fill="#adddb8" stroke="#adddb8" stroke-width="1.51"/><path d="M194,358L176,461L291,404Z" fill="#acdcb8" stroke="#acdcb8" stroke-width="1.51"/><path d="M206,1087L159,1239L289,1161Z" fill="#858696" stroke="#858696" stroke-width="1.51"/><path d="M175,521L222,635L277,547Z" fill="#9ad0bb" stroke="#9ad0bb" stroke-width="1.51"/><path d="M212,750L223,892L261,849Z" fill="#90aeb4" stroke="#90aeb4" stroke-width="1.51"/><path d="M-128,-135L2,-87L92,-99Z" fill="#f6fcc5" stroke="#f6fcc5" stroke-width="1.51"/><path d="M179,172L75,228L194,358Z" fill="#cae9b5" stroke="#cae9b5" stroke-width="1.51"/><path d="M75,228L71,300L194,358Z" fill="#c5e7b5" stroke="#c5e7b5" stroke-width="1.51"/><path d="M92,-99L103,-29L199,-130Z" fill="#eff9bb" stroke="#eff9bb" stroke-width="1.51"/><path d="M99,1171L159,1239L206,1087Z" fill="#898796" stroke="#898796" stroke-width="1.51"/><path d="M199,-130L103,-29L206,5Z" fill="#ebf7b7" stroke="#ebf7b7" stroke-width="1.51"/><path d="M69,623L44,723L212,750Z" fill="#9dc4ba" stroke="#9dc4ba" stroke-width="1.51"/><path d="M74,1083L206,1087L215,973Z" fill="#9392a8" stroke="#9392a8" stroke-width="1.51"/><path d="M45,1003L74,1083L215,973Z" fill="#9697a9" stroke="#9697a9" stroke-width="1.51"/><path d="M69,623L212,750L222,635Z" fill="#99c6bb" stroke="#99c6bb" stroke-width="1.51"/><path d="M115,577L69,623L222,635Z" fill="#9fcebb" stroke="#9fcebb" stroke-width="1.51"/><path d="M175,521L115,577L222,635Z" fill="#9ed0bc" stroke="#9ed0bc" stroke-width="1.51"/><path d="M94,869L215,973L223,892Z" fill="#92a3af" stroke="#92a3af" stroke-width="1.51"/><path d="M212,750L94,869L223,892Z" fill="#94aeb3" stroke="#94aeb3" stroke-width="1.51"/><path d="M44,723L94,869L212,750Z" fill="#9ab9b7" stroke="#9ab9b7" stroke-width="1.51"/><path d="M94,869L45,1003L215,973Z" fill="#96a0ad" stroke="#96a0ad" stroke-width="1.51"/><path d="M69,392L176,461L194,358Z" fill="#b1deb8" stroke="#b1deb8" stroke-width="1.51"/><path d="M74,1083L99,1171L206,1087Z" fill="#918c9f" stroke="#918c9f" stroke-width="1.51"/><path d="M103,-29L188,69L206,5Z" fill="#e8f5b2" stroke="#e8f5b2" stroke-width="1.51"/><path d="M55,137L179,172L188,69Z" fill="#ddf2b3" stroke="#ddf2b3" stroke-width="1.51"/><path d="M71,300L69,392L194,358Z" fill="#bbe3b6" stroke="#bbe3b6" stroke-width="1.51"/><path d="M103,-29L55,137L188,69Z" fill="#e6f5b2" stroke="#e6f5b2" stroke-width="1.51"/><path d="M115,577L175,521L176,461Z" fill="#a3d7bb" stroke="#a3d7bb" stroke-width="1.51"/><path d="M-5,466L115,577L176,461Z" fill="#aad9ba" stroke="#aad9ba" stroke-width="1.51"/><path d="M55,137L75,228L179,172Z" fill="#daf0b3" stroke="#daf0b3" stroke-width="1.51"/><path d="M69,392L-5,466L176,461Z" fill="#b2ddba" stroke="#b2ddba" stroke-width="1.51"/><path d="M99,1171L-59,1238L159,1239Z" fill="#88858f" stroke="#88858f" stroke-width="1.51"/><path d="M44,723L7,756L94,869Z" fill="#9cbab9" stroke="#9cbab9" stroke-width="1.51"/><path d="M-22,74L55,137L103,-29Z" fill="#e9f6b5" stroke="#e9f6b5" stroke-width="1.51"/><path d="M-39,507L69,623L115,577Z" fill="#a5d4be" stroke="#a5d4be" stroke-width="1.51"/><path d="M-5,466L-39,507L115,577Z" fill="#aad9c0" stroke="#aad9c0" stroke-width="1.51"/><path d="M-49,888L45,1003L94,869Z" fill="#9aa5b2" stroke="#9aa5b2" stroke-width="1.51"/><path d="M74,1083L-38,1127L99,1171Z" fill="#928ca0" stroke="#928ca0" stroke-width="1.51"/><path d="M2,-87L-55,27L103,-29Z" fill="#f1faba" stroke="#f1faba" stroke-width="1.51"/><path d="M-55,27L-22,74L103,-29Z" fill="#eef8b7" stroke="#eef8b7" stroke-width="1.51"/><path d="M92,-99L2,-87L103,-29Z" fill="#f2fabc" stroke="#f2fabc" stroke-width="1.51"/><path d="M7,756L-49,888L94,869Z" fill="#9cb1b8" stroke="#9cb1b8" stroke-width="1.51"/><path d="M-38,1127L-59,1238L99,1171Z" fill="#8e8999" stroke="#8e8999" stroke-width="1.51"/><path d="M-39,507L-27,646L69,623Z" fill="#a5d2c2" stroke="#a5d2c2" stroke-width="1.51"/><path d="M-27,646L44,723L69,623Z" fill="#a1cabf" stroke="#a1cabf" stroke-width="1.51"/><path d="M-44,293L69,392L71,300Z" fill="#c2e6ba" stroke="#c2e6ba" stroke-width="1.51"/><path d="M45,1003L-38,1127L74,1083Z" fill="#9891ab" stroke="#9891ab" stroke-width="1.51"/><path d="M55,137L-32,195L75,228Z" fill="#dbf1b7" stroke="#dbf1b7" stroke-width="1.51"/><path d="M-44,293L71,300L75,228Z" fill="#cceab9" stroke="#cceab9" stroke-width="1.51"/><path d="M-32,195L-44,293L75,228Z" fill="#d3edba" stroke="#d3edba" stroke-width="1.51"/><path d="M-49,888L-69,972L45,1003Z" fill="#9ba1b4" stroke="#9ba1b4" stroke-width="1.51"/><path d="M-44,293L-5,466L69,392Z" fill="#bae2bd" stroke="#bae2bd" stroke-width="1.51"/><path d="M-69,972L-38,1127L45,1003Z" fill="#9a97b0" stroke="#9a97b0" stroke-width="1.51"/><path d="M-22,74L-32,195L55,137Z" fill="#e2f4b8" stroke="#e2f4b8" stroke-width="1.51"/><path d="M-44,293L-121,405L-5,466Z" fill="#bbe3c1" stroke="#bbe3c1" stroke-width="1.51"/><path d="M-27,646L7,756L44,723Z" fill="#9fc5c0" stroke="#9fc5c0" stroke-width="1.51"/><path d="M-122,345L-121,405L-44,293Z" fill="#c2e6c3" stroke="#c2e6c3" stroke-width="1.51"/><path d="M-69,972L-119,1000L-38,1127Z" fill="#9b97b3" stroke="#9b97b3" stroke-width="1.51"/><path d="M-119,1000L-144,1068L-38,1127Z" fill="#9b94b3" stroke="#9b94b3" stroke-width="1.51"/><path d="M-102,86L-32,195L-22,74Z" fill="#e6f5bc" stroke="#e6f5bc" stroke-width="1.51"/><path d="M-120,-15L-55,27L2,-87Z" fill="#f4fbbf" stroke="#f4fbbf" stroke-width="1.51"/><path d="M-156,730L-49,888L7,756Z" fill="#9fb9c0" stroke="#9fb9c0" stroke-width="1.51"/><path d="M-27,646L-145,689L7,756Z" fill="#a1c7c5" stroke="#a1c7c5" stroke-width="1.51"/><path d="M-145,689L-156,730L7,756Z" fill="#a1c4c7" stroke="#a1c4c7" stroke-width="1.51"/><path d="M-128,-135L-120,-15L2,-87Z" fill="#f7fcc7" stroke="#f7fcc7" stroke-width="1.51"/><path d="M-102,86L-126,172L-32,195Z" fill="#e3f4bf" stroke="#e3f4bf" stroke-width="1.51"/><path d="M-39,507L-176,530L-27,646Z" fill="#a9d7c7" stroke="#a9d7c7" stroke-width="1.51"/><path d="M-121,405L-39,507L-5,466Z" fill="#b2dec3" stroke="#b2dec3" stroke-width="1.51"/><path d="M-156,730L-150,903L-49,888Z" fill="#9fb2c1" stroke="#9fb2c1" stroke-width="1.51"/><path d="M-156,1186L-59,1238L-38,1127Z" fill="#8f899e" stroke="#8f899e" stroke-width="1.51"/><path d="M-126,172L-44,293L-32,195Z" fill="#d8f0be" stroke="#d8f0be" stroke-width="1.51"/><path d="M-176,530L-145,689L-27,646Z" fill="#a7d0c9" stroke="#a7d0c9" stroke-width="1.51"/><path d="M-55,27L-102,86L-22,74Z" fill="#ecf8bc" stroke="#ecf8bc" stroke-width="1.51"/><path d="M-126,172L-122,345L-44,293Z" fill="#d0ecc1" stroke="#d0ecc1" stroke-width="1.51"/><path d="M-121,405L-176,530L-39,507Z" fill="#b2ddc8" stroke="#b2ddc8" stroke-width="1.51"/><path d="M-144,1068L-156,1186L-38,1127Z" fill="#968eaa" stroke="#968eaa" stroke-width="1.51"/><path d="M-150,903L-69,972L-49,888Z" fill="#9ca6b9" stroke="#9ca6b9" stroke-width="1.51"/><path d="M-120,-15L-102,86L-55,27Z" fill="#f0fabe" stroke="#f0fabe" stroke-width="1.51"/><path d="M-150,903L-119,1000L-69,972Z" fill="#9ca1b9" stroke="#9ca1b9" stroke-width="1.51"/><path d="M-120,-15L-126,172L-102,86Z" fill="#ecf8c0" stroke="#ecf8c0" stroke-width="1.51"/><path d="M-126,172L-176,530L-122,345Z" fill="#c3e7c7" stroke="#c3e7c7" stroke-width="1.51"/><path d="M-150,903L-144,1068L-119,1000Z" fill="#9d9dba" stroke="#9d9dba" stroke-width="1.51"/><path d="M-122,345L-176,530L-121,405Z" fill="#b9e1c8" stroke="#b9e1c8" stroke-width="1.51"/><path d="M-128,-135L-126,172L-120,-15Z" fill="#f4fbc0" stroke="#f4fbc0" stroke-width="1.51"/><path d="M-128,-135L-176,530L-126,172Z" fill="#e1f3c3" stroke="#e1f3c3" stroke-width="1.51"/><path d="M-176,530L-156,730L-145,689Z" fill="#a7cdcc" stroke="#a7cdcc" stroke-width="1.51"/><path d="M-150,903L-156,1186L-144,1068Z" fill="#9c96b7" stroke="#9c96b7" stroke-width="1.51"/><path d="M-156,730L-176,530L-150,903Z" fill="#a3c5cb" stroke="#a3c5cb" stroke-width="1.51"/><path d="M-176,530L-156,1186L-150,903Z" fill="#9faec1" stroke="#9faec1" stroke-width="1.51"/></svg>